<svg xmlns="http://www.w3.org/2000/svg" xmlns:xlink="http://www.w3.org/1999/xlink" viewBox="0 0 1080 1080" width="1080" height="1080" preserveAspectRatio="xMidYMid meet" style="width: 100%; height: 100%; transform: translate3d(0px, 0px, 0px); content-visibility: visible;"><defs><clipPath id="__lottie_element_2093"><rect width="1080" height="1080" x="0" y="0"/></clipPath></defs><g clip-path="url(#__lottie_element_2093)"><g transform="matrix(9.848388671875,-0.17817802727222443,0.17817802727222443,9.848388671875,-4261.28076171875,1744.141357421875)" opacity="1" style="display: block;"><g opacity="1" transform="matrix(1,0,0,1,0,0)"><path fill="rgb(18,24,86)" fill-opacity="1" d=" M480.4880065917969,-118.3239974975586 C479.44000244140625,-119.65599822998047 478.1180114746094,-121.06800079345703 477.5820007324219,-122.75800323486328 C477.3380126953125,-123.52899932861328 477.1579895019531,-124.30999755859375 477.0719909667969,-125.11799621582031 C476.9750061035156,-126.0270004272461 476.9159851074219,-127.04199981689453 477.0740051269531,-127.93599700927734 C477.25299072265625,-128.9499969482422 477.6650085449219,-130.0260009765625 478.0190124511719,-130.96600341796875 C478.489013671875,-132.21299743652344 478.9320068359375,-133.4530029296875 479.3500061035156,-134.72300720214844 C479.5669860839844,-135.38099670410156 479.7799987792969,-136.04299926757812 479.9440002441406,-136.71800231933594 C480.2099914550781,-137.80999755859375 480.15899658203125,-138.89199829101562 480.3089904785156,-139.99899291992188 C480.41900634765625,-140.80999755859375 480.61199951171875,-141.56399536132812 480.85699462890625,-142.33999633789062 C481.0849914550781,-143.06199645996094 481.3080139160156,-143.89300537109375 481.59698486328125,-144.60499572753906 C481.9419860839844,-145.45599365234375 482.6300048828125,-146.2740020751953 483.2430114746094,-146.93800354003906 C484.3389892578125,-148.125 485.62200927734375,-148.9709930419922 487.10198974609375,-149.531005859375 C488.0830078125,-149.9550018310547 489.1059875488281,-150.2220001220703 490.1709899902344,-150.32899475097656 C490.8609924316406,-150.3070068359375 491.54998779296875,-150.28500366210938 492.239990234375,-150.26300048828125 C492.8529968261719,-150.06199645996094 493.4670104980469,-149.86099243164062 494.0799865722656,-149.66000366210938 C495.1090087890625,-149.2519989013672 496.1199951171875,-148.7989959716797 497.11199951171875,-148.3000030517578 C498.7699890136719,-147.49899291992188 500.3890075683594,-146.4980010986328 501.5010070800781,-144.92599487304688 C502.20599365234375,-143.9290008544922 502.7460021972656,-142.89300537109375 503.1189880371094,-141.71499633789062 C503.4809875488281,-140.57000732421875 503.84600830078125,-139.37399291992188 503.9169921875,-138.16200256347656 C503.9750061035156,-137.1699981689453 503.947998046875,-136.17999267578125 504.14300537109375,-135.197998046875 C504.3940124511719,-133.93499755859375 507.3330078125,-128.13800048828125 507.79998779296875,-126.44300079345703 C511.1650085449219,-114.23400115966797 492.8689880371094,-112.87799835205078 490.3370056152344,-113.57499694824219 C489.239990234375,-113.87699890136719 488.11700439453125,-114.052001953125 487.0140075683594,-114.3239974975586 C486.6549987792969,-114.41999816894531 486.2959899902344,-114.51599884033203 485.93701171875,-114.61199951171875 C484.77398681640625,-115.16000366210938 483.0190124511719,-115.10600280761719 480.4880065917969,-118.3239974975586z"/></g><g opacity="1" transform="matrix(1,0,0,1,0,0)"><path fill="rgb(18,24,86)" fill-opacity="1" d=" M492.12799072265625,-149.55499267578125 C494.7229919433594,-150.13299560546875 497.6050109863281,-149.58900451660156 499.8059997558594,-148.0749969482422 C502.1830139160156,-146.44000244140625 503.74200439453125,-143.4550018310547 504.2300109863281,-140.65199279785156 C504.510009765625,-139.0469970703125 504.14898681640625,-137.43600463867188 504.47198486328125,-135.83399963378906 C504.7749938964844,-134.33099365234375 505.57501220703125,-133.0260009765625 506.2950134277344,-131.69500732421875 C507.58099365234375,-129.31900024414062 508.875,-126.96199798583984 508.9570007324219,-124.19300079345703 C509.04400634765625,-121.25900268554688 507.42498779296875,-118.47200012207031 504.6099853515625,-117.4540023803711 C504.1960144042969,-117.30400085449219 504.3739929199219,-116.63899993896484 504.7929992675781,-116.79000091552734 C506.6969909667969,-117.47799682617188 508.3110046386719,-118.98600006103516 509.0790100097656,-120.86199951171875 C510.23699951171875,-123.69300079345703 509.50299072265625,-126.87200164794922 508.2139892578125,-129.51600646972656 C507.3999938964844,-131.18499755859375 506.36199951171875,-132.75900268554688 505.6289978027344,-134.46499633789062 C504.7799987792969,-136.43899536132812 505.2409973144531,-138.34800720214844 504.9639892578125,-140.38800048828125 C504.56298828125,-143.34100341796875 502.9840087890625,-146.5 500.60400390625,-148.3419952392578 C498.1940002441406,-150.20700073242188 494.89801025390625,-150.8780059814453 491.9440002441406,-150.22000122070312 C491.510986328125,-150.12399291992188 491.69500732421875,-149.45899963378906 492.12799072265625,-149.55499267578125 C492.12799072265625,-149.55499267578125 492.12799072265625,-149.55499267578125 492.12799072265625,-149.55499267578125z"/></g></g><g transform="matrix(9.850000381469727,0,0,9.850000381469727,-4274.8046875,1647.8040771484375)" opacity="1" style="display: block;"><g opacity="1" transform="matrix(1,0,0,1,0,0)"><path fill="rgb(18,24,86)" fill-opacity="1" d=" M476.67401123046875,-91.16300201416016 C476.67401123046875,-91.16300201416016 473.0820007324219,-76.41300201416016 473.0820007324219,-76.41300201416016 C474.364013671875,-75.8239974975586 481.0769958496094,-72.23300170898438 489.41900634765625,-72.97799682617188 C501.6579895019531,-74.07099914550781 507.6409912109375,-76.67500305175781 507.97698974609375,-77.49500274658203 C508.010986328125,-77.9469985961914 503.49700927734375,-90.29900360107422 502.6260070800781,-90.98400115966797 C502.0690002441406,-91.3489990234375 501.4580078125,-91.54399871826172 500.79400634765625,-91.56900024414062 C499.37701416015625,-91.81800079345703 497.9519958496094,-92.01599884033203 496.5199890136719,-92.16400146484375 C495.010986328125,-92.35800170898438 493.5010070800781,-92.5530014038086 491.99200439453125,-92.74700164794922 C487.5669860839844,-93.19300079345703 483.20001220703125,-92.83000183105469 476.67401123046875,-91.16300201416016z"/></g></g><g transform="matrix(9.844290733337402,-0.33532822132110596,0.33532822132110596,9.844290733337402,-4240.6435546875,1820.89599609375)" opacity="1" style="display: block;"><g opacity="1" transform="matrix(1,0,0,1,0,0)"><path fill="rgb(78,197,199)" fill-opacity="1" d=" M502.8219909667969,-90.69100189208984 C502.6419982910156,-89.80000305175781 498.5039978027344,-88.48200225830078 492.5559997558594,-88.3239974975586 C486.9949951171875,-88.1760025024414 476.39300537109375,-88.40899658203125 476.03399658203125,-88.85700225830078 C475.9169921875,-89.19999694824219 475.8179931640625,-89.5510025024414 475.739013671875,-89.90899658203125 C475.5679931640625,-90.61000061035156 474.37298583984375,-111.23699951171875 474.3999938964844,-112.68800354003906 C474.406005859375,-113.17900085449219 474.4119873046875,-113.6709976196289 474.4179992675781,-114.16200256347656 C474.4750061035156,-114.98400115966797 474.8389892578125,-115.5469970703125 475.510986328125,-115.8499984741211 C476.135009765625,-116.44100189208984 476.8389892578125,-116.8740005493164 477.6260070800781,-117.14800262451172 C478.8949890136719,-117.86499786376953 480.22601318359375,-118.39900207519531 481.6180114746094,-118.7509994506836 C484.66900634765625,-119.27999877929688 487.83599853515625,-118.96099853515625 490.9049987792969,-119.32599639892578 C492.89898681640625,-119.43900299072266 494.7909851074219,-119.49299621582031 496.7749938964844,-119.47899627685547 C498.3340148925781,-119.46800231933594 499.93798828125,-119.6719970703125 501.43798828125,-119.09600067138672 C502.3030090332031,-118.76399993896484 503.8429870605469,-118.43800354003906 504.3789978027344,-117.58100128173828 C504.7909851074219,-116.9229965209961 502.9389953613281,-91.74400329589844 502.8219909667969,-90.69100189208984z"/></g></g><g transform="matrix(9.844290733337402,-0.33532822132110596,0.33532822132110596,9.844290733337402,-4240.6435546875,1820.89599609375)" opacity="1" style="display: block;"><g opacity="1" transform="matrix(1,0,0,1,0,0)"><path fill="rgb(78,197,199)" fill-opacity="1" d=" M497.54400634765625,-118.44000244140625 C498.91400146484375,-119.4729995727539 500.4150085449219,-120.23999786376953 502.0469970703125,-120.73999786376953 C503.1050109863281,-120.94400024414062 504.14801025390625,-120.88099670410156 505.17401123046875,-120.55000305175781 C507.4800109863281,-119.8759994506836 508.8970031738281,-118.36799621582031 510.3489990234375,-116.5719985961914 C511.0840148925781,-115.71299743652344 515.0570068359375,-108.21499633789062 515.8469848632812,-106.92900085449219 C514.0579833984375,-106.23500061035156 508.7460021972656,-103.76300048828125 507.77301025390625,-103.4729995727539 C507.2550048828125,-103.31500244140625 506.7349853515625,-103.15799713134766 506.2170104980469,-103 C505.74200439453125,-102.76300048828125 505.24798583984375,-102.63300323486328 504.7309875488281,-102.61100006103516 C504.47698974609375,-102.50700378417969 504.2879943847656,-102.58000183105469 504.16400146484375,-102.83200073242188 C503.91900634765625,-103.05699920654297 503.7049865722656,-103.30899810791016 503.5220031738281,-103.58799743652344 C502.8330078125,-104.47599792480469 499.2229919433594,-108.38899993896484 498.489013671875,-109.80000305175781 C497.47698974609375,-111.74500274658203 497.0509948730469,-113.74299621582031 497.54400634765625,-118.44000244140625z"/></g></g><g transform="matrix(9.844290733337402,-0.33532822132110596,0.33532822132110596,9.844290733337402,-4240.6435546875,1820.89599609375)" opacity="1" style="display: block;"><g opacity="1" transform="matrix(1,0,0,1,0,0)"><path fill="rgb(78,197,199)" fill-opacity="1" d=" M485.7120056152344,-120.57599639892578 C483.9930114746094,-121.16200256347656 482.32000732421875,-121.84300231933594 480.48699951171875,-121.95700073242188 C479.0249938964844,-122.0479965209961 477.6080017089844,-121.65899658203125 476.35198974609375,-120.97100067138672 C474.82501220703125,-120.13500213623047 473.59698486328125,-118.94200134277344 472.41900634765625,-117.66799926757812 C471.4460144042969,-116.61499786376953 466.1619873046875,-108.81800079345703 465.5530090332031,-107.81600189208984 C464.8689880371094,-106.69000244140625 464.40899658203125,-105.90599822998047 465.3909912109375,-104.7770004272461 C466.2279968261719,-103.81500244140625 472.99200439453125,-100.22000122070312 473.37298583984375,-100.31999969482422 C474.04400634765625,-100.49700164794922 477.7550048828125,-105.11499786376953 478.5459899902344,-106.41799926757812 C481.0409851074219,-110.5260009765625 481.45098876953125,-112.00800323486328 485.7120056152344,-120.57599639892578z"/></g></g><g transform="matrix(9.848388671875,-0.17817802727222443,0.17817802727222443,9.848388671875,-4261.28076171875,1744.141357421875)" opacity="1" style="display: block;"><g opacity="1" transform="matrix(1,0,0,1,0,0)"><path fill="rgb(255,255,255)" fill-opacity="1" d=" M483.4219970703125,-125.96800231933594 C482.53399658203125,-126.83899688720703 482.1619873046875,-127.86299896240234 482.02398681640625,-129.07699584960938 C481.9309997558594,-129.8990020751953 481.9679870605469,-130.69900512695312 482.0459899902344,-131.51800537109375 C482.1549987792969,-132.656005859375 482.1579895019531,-133.78399658203125 482.1659851074219,-134.9250030517578 C482.1719970703125,-135.82899475097656 482.2149963378906,-136.73500061035156 482.2489929199219,-137.63900756835938 C482.2650146484375,-138.10800170898438 482.2959899902344,-138.5760040283203 482.3429870605469,-139.04299926757812 C482.6260070800781,-140.2050018310547 483.0039978027344,-141.33700561523438 483.47900390625,-142.43699645996094 C484.3580017089844,-144.47500610351562 486.03399658203125,-144.3489990234375 487.29901123046875,-144.66200256347656 C488.135009765625,-144.86900329589844 488.9830017089844,-145.0500030517578 489.8450012207031,-145.08299255371094 C491.87701416015625,-145.16099548339844 494.0950012207031,-145.23699951171875 495.9960021972656,-144.39300537109375 C496.6409912109375,-144.0489959716797 497.27398681640625,-143.68600463867188 497.89599609375,-143.30299377441406 C498.3819885253906,-142.90499877929688 498.7300109863281,-142.4029998779297 498.9389953613281,-141.79600524902344 C499.93798828125,-139.82699584960938 500.343994140625,-137.7480010986328 499.9880065917969,-135.55099487304688 C499.9700012207031,-135.46299743652344 499.95098876953125,-135.375 499.9330139160156,-135.28700256347656 C500.3370056152344,-135.12899780273438 500.7489929199219,-134.906005859375 501.010009765625,-134.63099670410156 C501.6709899902344,-133.93299865722656 501.80999755859375,-132.718994140625 501.50299072265625,-131.84800720214844 C501.07000732421875,-130.61900329589844 500.5539855957031,-129.49099731445312 499.3940124511719,-128.81300354003906 C498.5480041503906,-128.31900024414062 497.4209899902344,-128.86900329589844 497.4209899902344,-128.86900329589844 C497.0559997558594,-128.38299560546875 496.3110046386719,-122.49700164794922 496.68798828125,-121.85600280761719 C497.62701416015625,-120.26300048828125 501.468994140625,-119.83200073242188 501.468994140625,-119.83200073242188 C501.8009948730469,-119.6719970703125 499.1050109863281,-114.98200225830078 491.9649963378906,-114.12899780273438 C485.6719970703125,-114.12899780273438 482.5539855957031,-119.7750015258789 482.90399169921875,-120.08399963378906 C483.3059997558594,-120.43900299072266 486.9259948730469,-121.71099853515625 486.9259948730469,-121.71099853515625 C487.7439880371094,-122.2699966430664 487.92498779296875,-123.17500305175781 488.010009765625,-124.09500122070312 C486.8890075683594,-124.11699676513672 485.7909851074219,-124.35600280761719 484.8110046386719,-124.95700073242188 C484.3210144042969,-125.25800323486328 483.8349914550781,-125.56400299072266 483.4219970703125,-125.96800231933594z"/></g><g opacity="1" transform="matrix(1,0,0,1,0,0)"><path fill="rgb(18,24,86)" fill-opacity="1" d=" M483.64898681640625,-126.19499969482422 C482.3819885253906,-127.53500366210938 482.2170104980469,-129.25799560546875 482.32598876953125,-131.0290069580078 C482.4289855957031,-132.70700073242188 482.4599914550781,-134.37600708007812 482.5119934082031,-136.05599975585938 C482.5660095214844,-137.81700134277344 482.69500732421875,-139.4290008544922 483.2959899902344,-141.1009979248047 C483.89898681640625,-142.7779998779297 484.58099365234375,-143.81100463867188 486.37799072265625,-144.15899658203125 C489.1919860839844,-144.7050018310547 492.3179931640625,-145.30599975585938 495.1340026855469,-144.37399291992188 C495.9939880371094,-144.08900451660156 496.9410095214844,-143.60899353027344 497.6520080566406,-143.03799438476562 C498.4079895019531,-142.43099975585938 498.8169860839844,-141.41600036621094 499.156005859375,-140.51600646972656 C499.7669982910156,-138.89100646972656 499.98199462890625,-137.08200073242188 499.62298583984375,-135.3730010986328 C499.59600830078125,-135.24600219726562 499.63800048828125,-135.06900024414062 499.77099609375,-135.00999450683594 C501.6340026855469,-134.177001953125 501.5429992675781,-132.48300170898438 500.7659912109375,-130.88099670410156 C500.1789855957031,-129.66900634765625 499.0450134277344,-128.48399353027344 497.5830078125,-129.14700317382812 C497.42401123046875,-129.218994140625 497.239013671875,-129.1929931640625 497.14300537109375,-129.031005859375 C496.60699462890625,-128.12600708007812 496.6090087890625,-126.7040023803711 496.4859924316406,-125.68900299072266 C496.35400390625,-124.59700012207031 495.9779968261719,-123.00900268554688 496.32501220703125,-121.92400360107422 C496.7090148925781,-120.7239990234375 498.39898681640625,-120.19400024414062 499.4739990234375,-119.9000015258789 C499.9490051269531,-119.7699966430664 500.6669921875,-119.50199890136719 501.1719970703125,-119.55000305175781 C501.885009765625,-119.61799621582031 500.7699890136719,-119.53500366210938 501.17401123046875,-119.76100158691406 C501.10699462890625,-119.7229995727539 501.10198974609375,-119.52100372314453 501.0360107421875,-119.45899963378906 C500.7200012207031,-119.16100311279297 500.50299072265625,-118.6709976196289 500.20001220703125,-118.33999633789062 C499.656005859375,-117.74600219726562 499.0360107421875,-117.22100067138672 498.37200927734375,-116.76599884033203 C496.67498779296875,-115.60399627685547 494.7070007324219,-114.89099884033203 492.6839904785156,-114.55400085449219 C489.17999267578125,-113.97000122070312 485.0580139160156,-116.26799774169922 483.4360046386719,-119.41200256347656 C483.364990234375,-119.54900360107422 483.20098876953125,-119.7770004272461 483.21099853515625,-119.93499755859375 C483.22100830078125,-120.0999984741211 483.0690002441406,-119.7300033569336 483.1809997558594,-119.88400268554688 C483.25299072265625,-119.98200225830078 483.4809875488281,-120.03800201416016 483.5889892578125,-120.08899688720703 C484.385009765625,-120.46600341796875 485.23199462890625,-120.75599670410156 486.0580139160156,-121.05799865722656 C487.5710144042969,-121.61199951171875 488.1470031738281,-122.40799713134766 488.33099365234375,-124.09500122070312 C488.3500061035156,-124.27300262451172 488.1679992675781,-124.41000366210938 488.010009765625,-124.41699981689453 C486.3370056152344,-124.49199676513672 484.8999938964844,-125.08399963378906 483.64898681640625,-126.19499969482422 C483.3399963378906,-126.46900177001953 482.8840026855469,-126.01499938964844 483.1940002441406,-125.73999786376953 C484.593994140625,-124.49700164794922 486.1449890136719,-123.85700225830078 488.010009765625,-123.77400207519531 C487.90301513671875,-123.88099670410156 487.7950134277344,-123.98799896240234 487.68798828125,-124.09500122070312 C487.57000732421875,-123.01399993896484 487.28900146484375,-122.18499755859375 486.26800537109375,-121.81700134277344 C485.4840087890625,-121.53399658203125 484.70098876953125,-121.24600219726562 483.92999267578125,-120.92900085449219 C483.25799560546875,-120.65299987792969 482.40399169921875,-120.49600219726562 482.6289978027344,-119.64199829101562 C482.90301513671875,-118.5999984741211 483.885009765625,-117.57099914550781 484.62701416015625,-116.8479995727539 C485.8919982910156,-115.61499786376953 487.45001220703125,-114.6760025024414 489.15301513671875,-114.19300079345703 C492.8970031738281,-113.13099670410156 497.2850036621094,-114.71600341796875 500.08099365234375,-117.31099700927734 C500.64300537109375,-117.83200073242188 501.62298583984375,-118.71099853515625 501.77099609375,-119.52300262451172 C501.9100036621094,-120.28600311279297 501.1780090332031,-120.18199920654297 500.5950012207031,-120.2979965209961 C499.5169982910156,-120.51200103759766 498.2090148925781,-120.80699920654297 497.36700439453125,-121.55899810791016 C496.7510070800781,-122.11000061035156 496.8919982910156,-122.84700012207031 496.93499755859375,-123.60900115966797 C496.99200439453125,-124.6240005493164 497.1090087890625,-125.63899993896484 497.25799560546875,-126.6449966430664 C497.3500061035156,-127.26399993896484 497.37200927734375,-128.1540069580078 497.6990051269531,-128.70700073242188 C497.552001953125,-128.66900634765625 497.406005859375,-128.62899780273438 497.2590026855469,-128.59100341796875 C499.9150085449219,-127.38700103759766 502.1860046386719,-130.71400451660156 501.9630126953125,-133.13800048828125 C501.906005859375,-133.75799560546875 501.67498779296875,-134.4010009765625 501.2380065917969,-134.85899353027344 C501.04998779296875,-135.05599975585938 500.5199890136719,-135.2519989013672 500.3970031738281,-135.42599487304688 C500.2430114746094,-135.6439971923828 500.42401123046875,-136.531005859375 500.4330139160156,-136.85499572753906 C500.4849853515625,-138.79100036621094 499.9280090332031,-140.78500366210938 498.98699951171875,-142.47300720214844 C498.14801025390625,-143.97900390625 496.12200927734375,-144.86000061035156 494.50201416015625,-145.19900512695312 C492.64801025390625,-145.58599853515625 490.5559997558594,-145.57400512695312 488.69000244140625,-145.28199768066406 C487.35101318359375,-145.072998046875 485.4649963378906,-144.89999389648438 484.3370056152344,-144.0709991455078 C482.99798583984375,-143.08700561523438 482.4100036621094,-140.88099670410156 482.0880126953125,-139.3459930419922 C481.5610046386719,-136.82899475097656 481.91400146484375,-134.0780029296875 481.7239990234375,-131.51800537109375 C481.5669860839844,-129.4010009765625 481.66900634765625,-127.35299682617188 483.1940002441406,-125.73999786376953 C483.47900390625,-125.43900299072266 483.9330139160156,-125.89399719238281 483.64898681640625,-126.19499969482422z"/></g><g opacity="1" transform="matrix(1,0,0,1,0,0)"><path fill="rgb(18,24,86)" fill-opacity="1" d=" M480.58099365234375,-133.49200439453125 C479.48699951171875,-134.78199768066406 479.8890075683594,-140.43099975585938 481.18701171875,-143.15899658203125 C481.8389892578125,-144.10299682617188 483.0480041503906,-150.32899475097656 493.10101318359375,-149.9340057373047 C500.6390075683594,-148.73500061035156 502.9949951171875,-141.08399963378906 502.6199951171875,-139.32400512695312 C502.3370056152344,-137.99600219726562 501.7300109863281,-136.80499267578125 500.65399169921875,-135.98300170898438 C499.8909912109375,-135.39999389648438 499.0880126953125,-134.8470001220703 498.1809997558594,-134.51100158691406 C496.91400146484375,-134.04100036621094 495.8869934082031,-134.36599731445312 494.6390075683594,-134.83299255371094 C493.8280029296875,-135.13699340820312 492.9809875488281,-135.53399658203125 492.1940002441406,-135.91900634765625 C491.10699462890625,-136.4510040283203 489.96099853515625,-136.94500732421875 488.9599914550781,-137.6300048828125 C488.0429992675781,-138.2570037841797 487.3160095214844,-139.0500030517578 486.4960021972656,-139.7830047607422 C485.9259948730469,-140.29299926757812 485.1000061035156,-141.0500030517578 484.3080139160156,-141.07699584960938 C483.239013671875,-141.11399841308594 482.6650085449219,-138.62399291992188 482.21600341796875,-137.78500366210938 C481.5260009765625,-136.49600219726562 480.7019958496094,-136.11399841308594 480.58099365234375,-133.49200439453125z"/></g><g opacity="1" transform="matrix(1,0,0,1,0,0)"><g opacity="1" transform="matrix(1,0,0,1,0,0)"><path fill="rgb(18,24,86)" fill-opacity="1" d=" M481.8949890136719,-135.88900756835938 C481.96600341796875,-135.9290008544922 482.0369873046875,-135.96800231933594 482.1090087890625,-136.0050048828125 C482.1449890136719,-136.0229949951172 482.1820068359375,-136.04100036621094 482.218994140625,-136.05799865722656 C482.239990234375,-136.0679931640625 482.260009765625,-136.07699584960938 482.281005859375,-136.08700561523438 C482.2879943847656,-136.08999633789062 482.343994140625,-136.11300659179688 482.30499267578125,-136.0970001220703 C482.260986328125,-136.07899475097656 482.33599853515625,-136.11000061035156 482.343994140625,-136.11300659179688 C482.36700439453125,-136.1219940185547 482.3890075683594,-136.1300048828125 482.4119873046875,-136.13800048828125 C482.4549865722656,-136.1529998779297 482.49798583984375,-136.16900634765625 482.5409851074219,-136.1820068359375 C482.63800048828125,-136.21200561523438 482.73699951171875,-136.23599243164062 482.83599853515625,-136.25599670410156 C482.885986328125,-136.26600646972656 482.9360046386719,-136.27499389648438 482.98699951171875,-136.28199768066406 C482.93798828125,-136.27499389648438 483.0639953613281,-136.28900146484375 483.0899963378906,-136.29100036621094 C483.2120056152344,-136.3000030517578 483.3349914550781,-136.302001953125 483.4580078125,-136.2969970703125 C483.739990234375,-136.28599548339844 484.0069885253906,-136.23699951171875 484.2829895019531,-136.16600036621094 C484.7130126953125,-136.05599975585938 484.89599609375,-136.7209930419922 484.46600341796875,-136.83099365234375 C483.8810119628906,-136.9810028076172 483.281005859375,-137.03700256347656 482.68499755859375,-136.927001953125 C482.2820129394531,-136.8520050048828 481.9020080566406,-136.68499755859375 481.5469970703125,-136.48399353027344 C481.1610107421875,-136.26600646972656 481.50799560546875,-135.6699981689453 481.8949890136719,-135.88900756835938 C481.8949890136719,-135.88900756835938 481.8949890136719,-135.88900756835938 481.8949890136719,-135.88900756835938z"/></g></g><g opacity="1" transform="matrix(1,0,0,1,0,0)"><g opacity="1" transform="matrix(1,0,0,1,0,0)"><path fill="rgb(18,24,86)" fill-opacity="1" d=" M488.37200927734375,-137.0780029296875 C488.6579895019531,-137.1540069580078 488.94000244140625,-137.24400329589844 489.2229919433594,-137.33099365234375 C489.4729919433594,-137.4080047607422 489.6969909667969,-137.46299743652344 489.96099853515625,-137.4250030517578 C490.4989929199219,-137.34800720214844 491.0450134277344,-137.1929931640625 491.5320129394531,-136.9530029296875 C491.6990051269531,-136.87100219726562 491.90399169921875,-136.9080047607422 492.00299072265625,-137.07699584960938 C492.0920104980469,-137.22900390625 492.0480041503906,-137.46499633789062 491.8800048828125,-137.54800415039062 C491.3070068359375,-137.8300018310547 490.68499755859375,-138.01499938964844 490.052001953125,-138.10299682617188 C489.4020080566406,-138.1929931640625 488.80499267578125,-137.90699768066406 488.1889953613281,-137.7429962158203 C487.760986328125,-137.62899780273438 487.9419860839844,-136.96400451660156 488.37200927734375,-137.0780029296875 C488.37200927734375,-137.0780029296875 488.37200927734375,-137.0780029296875 488.37200927734375,-137.0780029296875z"/></g></g><g opacity="1" transform="matrix(1,0,0,1,0,0)"><g opacity="1" transform="matrix(1,0,0,1,0,0)"><path fill="rgb(18,24,86)" fill-opacity="1" d=" M485.2640075683594,-133.2449951171875 C485.1860046386719,-132.85400390625 485.0429992675781,-132.48300170898438 484.9100036621094,-132.10899353027344 C484.8810119628906,-132.02699279785156 484.8550109863281,-131.94500732421875 484.82501220703125,-131.86300659179688 C484.81500244140625,-131.8350067138672 484.8030090332031,-131.8070068359375 484.7919921875,-131.7790069580078 C484.7929992675781,-131.781005859375 484.8179931640625,-131.83900451660156 484.8009948730469,-131.802001953125 C484.7829895019531,-131.76199340820312 484.76800537109375,-131.7220001220703 484.7510070800781,-131.6820068359375 C484.6860046386719,-131.5279998779297 484.635009765625,-131.37899780273438 484.614990234375,-131.21200561523438 C484.5320129394531,-130.51300048828125 485.39801025390625,-130.3070068359375 485.9280090332031,-130.36700439453125 C486.22601318359375,-130.4010009765625 486.5740051269531,-130.48300170898438 486.7770080566406,-130.7239990234375 C486.89300537109375,-130.86199951171875 486.9219970703125,-131.07899475097656 486.7770080566406,-131.21200561523438 C486.64898681640625,-131.3300018310547 486.41400146484375,-131.35899353027344 486.2900085449219,-131.21200561523438 C486.27899169921875,-131.19900512695312 486.2669982910156,-131.18699645996094 486.2550048828125,-131.1739959716797 C486.2489929199219,-131.16700744628906 486.239990234375,-131.16299438476562 486.2340087890625,-131.156005859375 C486.2080078125,-131.12600708007812 486.2969970703125,-131.19200134277344 486.2590026855469,-131.17599487304688 C486.2300109863281,-131.16400146484375 486.17498779296875,-131.1060028076172 486.14300537109375,-131.11099243164062 C486.1400146484375,-131.11199951171875 486.2130126953125,-131.13600158691406 486.17498779296875,-131.125 C486.16400146484375,-131.1219940185547 486.15399169921875,-131.11700439453125 486.14300537109375,-131.11300659179688 C486.11700439453125,-131.10400390625 486.09100341796875,-131.0959930419922 486.06500244140625,-131.08900451660156 C486.0140075683594,-131.0749969482422 485.9630126953125,-131.06500244140625 485.9110107421875,-131.05499267578125 C485.8450012207031,-131.04200744628906 485.97100830078125,-131.0590057373047 485.90301513671875,-131.0540008544922 C485.87298583984375,-131.052001953125 485.843994140625,-131.04800415039062 485.8139953613281,-131.0469970703125 C485.7590026855469,-131.04400634765625 485.7030029296875,-131.04400634765625 485.64801025390625,-131.0469970703125 C485.62298583984375,-131.04800415039062 485.5979919433594,-131.05099487304688 485.572998046875,-131.05299377441406 C485.510009765625,-131.05799865722656 485.635009765625,-131.03900146484375 485.5539855957031,-131.05599975585938 C485.50299072265625,-131.0659942626953 485.4540100097656,-131.0780029296875 485.4049987792969,-131.093994140625 C485.3940124511719,-131.0970001220703 485.3840026855469,-131.1020050048828 485.37298583984375,-131.10499572753906 C485.3290100097656,-131.11599731445312 485.42999267578125,-131.07200622558594 485.39300537109375,-131.0959930419922 C485.375,-131.10699462890625 485.35400390625,-131.11399841308594 485.33599853515625,-131.125 C485.3210144042969,-131.13400268554688 485.27301025390625,-131.1750030517578 485.3110046386719,-131.13800048828125 C485.35101318359375,-131.0989990234375 485.2969970703125,-131.15499877929688 485.2860107421875,-131.16400146484375 C485.2449951171875,-131.1959991455078 485.3179931640625,-131.10000610351562 485.2869873046875,-131.16400146484375 C485.2699890136719,-131.19900512695312 485.29901123046875,-131.1320037841797 485.29901123046875,-131.13299560546875 C485.2959899902344,-131.14100646972656 485.2860107421875,-131.1840057373047 485.2969970703125,-131.13299560546875 C485.3080139160156,-131.08200073242188 485.302001953125,-131.1580047607422 485.3009948730469,-131.17300415039062 C485.2980041503906,-131.20899963378906 485.29901123046875,-131.15199279785156 485.2969970703125,-131.14599609375 C485.302001953125,-131.16400146484375 485.30499267578125,-131.18299865722656 485.3089904785156,-131.2010040283203 C485.3240051269531,-131.26199340820312 485.343994140625,-131.32000732421875 485.36700439453125,-131.37899780273438 C485.37701416015625,-131.406005859375 485.38800048828125,-131.43299865722656 485.39898681640625,-131.4600067138672 C485.41400146484375,-131.4969940185547 485.3919982910156,-131.44400024414062 485.3909912109375,-131.4409942626953 C485.40399169921875,-131.4709930419922 485.4169921875,-131.50100708007812 485.42999267578125,-131.531005859375 C485.48699951171875,-131.66700744628906 485.5320129394531,-131.80599975585938 485.5820007324219,-131.94500732421875 C485.7139892578125,-132.31300354003906 485.85198974609375,-132.67799377441406 485.9289855957031,-133.06199645996094 C485.9639892578125,-133.23800659179688 485.8800048828125,-133.4429931640625 485.6889953613281,-133.48599243164062 C485.51800537109375,-133.52499389648438 485.302001953125,-133.4340057373047 485.2640075683594,-133.2449951171875 C485.2640075683594,-133.2449951171875 485.2640075683594,-133.2449951171875 485.2640075683594,-133.2449951171875z"/></g></g><g opacity="1" transform="matrix(1,0,0,1,0,0)"><g opacity="1" transform="matrix(1,0,0,1,0,0)"><path fill="rgb(18,24,86)" fill-opacity="1" d=" M486.5329895019531,-128.28199768066406 C487.74798583984375,-128.31100463867188 488.9119873046875,-129.05499267578125 489.4070129394531,-130.1699981689453 C489.48199462890625,-130.33999633789062 489.45599365234375,-130.5399932861328 489.2829895019531,-130.64100646972656 C489.135986328125,-130.7270050048828 488.8869934082031,-130.68899536132812 488.8110046386719,-130.51800537109375 C488.7439880371094,-130.36599731445312 488.6659851074219,-130.218994140625 488.57501220703125,-130.08099365234375 C488.55499267578125,-130.05099487304688 488.53399658203125,-130.02099609375 488.51300048828125,-129.99200439453125 C488.4989929199219,-129.97300720214844 488.4840087890625,-129.9530029296875 488.4700012207031,-129.9340057373047 C488.4840087890625,-129.95199584960938 488.4830017089844,-129.95199584960938 488.468994140625,-129.9340057373047 C488.4209899902344,-129.87600708007812 488.3710021972656,-129.81900024414062 488.3190002441406,-129.76499938964844 C488.2720031738281,-129.71600341796875 488.2229919433594,-129.66900634765625 488.1730041503906,-129.62399291992188 C488.1440124511719,-129.59800720214844 488.114013671875,-129.572998046875 488.0849914550781,-129.54800415039062 C488.0719909667969,-129.53799438476562 488.0589904785156,-129.52699279785156 488.0459899902344,-129.51699829101562 C488.072998046875,-129.53700256347656 488.0710144042969,-129.53599548339844 488.03900146484375,-129.51199340820312 C487.9320068359375,-129.43499755859375 487.8219909667969,-129.36300659179688 487.70599365234375,-129.2989959716797 C487.64801025390625,-129.26699829101562 487.5899963378906,-129.23800659179688 487.5299987792969,-129.2100067138672 C487.50299072265625,-129.19700622558594 487.4750061035156,-129.18499755859375 487.447998046875,-129.17300415039062 C487.5199890136719,-129.20399475097656 487.42999267578125,-129.16600036621094 487.4219970703125,-129.16299438476562 C487.3089904785156,-129.11900329589844 487.1940002441406,-129.08200073242188 487.0769958496094,-129.05099487304688 C486.9700012207031,-129.0229949951172 486.8609924316406,-129.0030059814453 486.75201416015625,-128.98500061035156 C486.8479919433594,-129.00100708007812 486.7179870605469,-128.98199462890625 486.6830139160156,-128.97900390625 C486.63299560546875,-128.97500610351562 486.5830078125,-128.9720001220703 486.5329895019531,-128.9709930419922 C486.34698486328125,-128.96600341796875 486.1889953613281,-128.8159942626953 486.1889953613281,-128.6269989013672 C486.1889953613281,-128.4429931640625 486.34600830078125,-128.27699279785156 486.5329895019531,-128.28199768066406 C486.5329895019531,-128.28199768066406 486.5329895019531,-128.28199768066406 486.5329895019531,-128.28199768066406z"/></g></g><g opacity="1" transform="matrix(1,0,0,1,0,0)"><g opacity="1" transform="matrix(1,0,0,1,0,0)"><path fill="rgb(18,24,86)" fill-opacity="1" d=" M499.510986328125,-134.33200073242188 C499.0320129394531,-134.12600708007812 498.5710144042969,-133.83799743652344 498.2149963378906,-133.4530029296875 C497.8210144042969,-133.02699279785156 497.5849914550781,-132.5070037841797 497.5450134277344,-131.927001953125 C497.5320129394531,-131.7469940185547 497.7130126953125,-131.57400512695312 497.8900146484375,-131.58200073242188 C498.0880126953125,-131.59100341796875 498.22100830078125,-131.73399353027344 498.2340087890625,-131.927001953125 C498.2359924316406,-131.95899963378906 498.239013671875,-131.99000549316406 498.24200439453125,-132.02200317382812 C498.25201416015625,-132.12399291992188 498.22900390625,-131.9550018310547 498.24798583984375,-132.0540008544922 C498.260009765625,-132.11399841308594 498.27099609375,-132.1739959716797 498.2869873046875,-132.23300170898438 C498.3030090332031,-132.29100036621094 498.3210144042969,-132.34800720214844 498.3420104980469,-132.4040069580078 C498.3450012207031,-132.41200256347656 498.3760070800781,-132.48699951171875 498.3580017089844,-132.44500732421875 C498.34100341796875,-132.406005859375 498.3789978027344,-132.48800659179688 498.38299560546875,-132.4969940185547 C498.4320068359375,-132.59800720214844 498.489990234375,-132.69400024414062 498.5539855957031,-132.78599548339844 C498.5710144042969,-132.80999755859375 498.5870056152344,-132.83299255371094 498.6050109863281,-132.8560028076172 C498.5580139160156,-132.7949981689453 498.6199951171875,-132.8719940185547 498.625,-132.8780059814453 C498.6629943847656,-132.92300415039062 498.70098876953125,-132.96600341796875 498.74200439453125,-133.00799560546875 C498.8210144042969,-133.08900451660156 498.9049987792969,-133.16600036621094 498.9930114746094,-133.23800659179688 C499.0050048828125,-133.2469940185547 499.0159912109375,-133.2570037841797 499.02801513671875,-133.26600646972656 C499.0010070800781,-133.24600219726562 498.99700927734375,-133.24200439453125 499.0169982910156,-133.2570037841797 C499.0369873046875,-133.27200317382812 499.0570068359375,-133.28599548339844 499.0769958496094,-133.30099487304688 C499.1260070800781,-133.33599853515625 499.17498779296875,-133.3699951171875 499.2250061035156,-133.40199279785156 C499.4259948730469,-133.53199768066406 499.6400146484375,-133.64100646972656 499.8590087890625,-133.73599243164062 C500.0249938964844,-133.80799865722656 500.0740051269531,-134.06500244140625 499.98199462890625,-134.20799255371094 C499.8710021972656,-134.38099670410156 499.6889953613281,-134.40899658203125 499.510986328125,-134.33200073242188 C499.510986328125,-134.33200073242188 499.510986328125,-134.33200073242188 499.510986328125,-134.33200073242188z"/></g></g><g opacity="1" transform="matrix(1,0,0,1,0,0)"><path fill="rgb(18,24,86)" fill-opacity="1" d=" M488.5169982910156,-134.8520050048828 C488.5169982910156,-134.46499633789062 488.6910095214844,-134.1510009765625 488.9049987792969,-134.1510009765625 C489.1189880371094,-134.1510009765625 489.29400634765625,-134.46499633789062 489.29400634765625,-134.8520050048828 C489.29400634765625,-135.23899841308594 489.1189880371094,-135.55299377441406 488.9049987792969,-135.55299377441406 C488.6910095214844,-135.55299377441406 488.5169982910156,-135.23899841308594 488.5169982910156,-134.8520050048828z"/></g><g opacity="1" transform="matrix(1,0,0,1,0,0)"><path fill="rgb(18,24,86)" fill-opacity="1" d=" M483.7510070800781,-134.03399658203125 C483.7510070800781,-133.64700317382812 483.92498779296875,-133.33299255371094 484.1390075683594,-133.33299255371094 C484.3529968261719,-133.33299255371094 484.52801513671875,-133.64700317382812 484.52801513671875,-134.03399658203125 C484.52801513671875,-134.42100524902344 484.3529968261719,-134.73500061035156 484.1390075683594,-134.73500061035156 C483.92498779296875,-134.73500061035156 483.7510070800781,-134.42100524902344 483.7510070800781,-134.03399658203125z"/></g></g><g transform="matrix(9.845625877380371,-0.29352372884750366,0.29352372884750366,9.845625877380371,-4245.0791015625,1800.00341796875)" opacity="1" style="display: block;"><g opacity="1" transform="matrix(1,0,0,1,0,0)"><path fill="rgb(249,177,12)" fill-opacity="1" d=" M513.2169799804688,-109.7020034790039 C513.2169799804688,-109.7020034790039 513.2169799804688,-94.02300262451172 513.2169799804688,-94.02300262451172 C513.2169799804688,-93.94300079345703 513.2139892578125,-93.86399841308594 513.2080078125,-93.78399658203125 C513.2039794921875,-93.72100067138672 513.2000122070312,-93.65799713134766 513.1920166015625,-93.59500122070312 C513.1900024414062,-93.56400299072266 513.1849975585938,-93.53399658203125 513.1810302734375,-93.50499725341797 C513.1749877929688,-93.45899963378906 513.166015625,-93.41200256347656 513.1580200195312,-93.36799621582031 C513.1409912109375,-93.26899719238281 513.1199951171875,-93.1729965209961 513.094970703125,-93.0790023803711 C513.0759887695312,-93.00800323486328 513.0549926757812,-92.93599700927734 513.031982421875,-92.86699676513672 C513.010986328125,-92.802001953125 512.9879760742188,-92.73899841308594 512.9630126953125,-92.6760025024414 C512.8729858398438,-92.44100189208984 512.7589721679688,-92.22100067138672 512.6209716796875,-92.01300048828125 C512.5980224609375,-91.9729995727539 512.5700073242188,-91.93099975585938 512.541015625,-91.89299774169922 C512.4929809570312,-91.8219985961914 512.4409790039062,-91.75 512.3839721679688,-91.68299865722656 C512.3359985351562,-91.6240005493164 512.2869873046875,-91.56800079345703 512.2349853515625,-91.51300048828125 C512.1890258789062,-91.45999908447266 512.1380004882812,-91.40799713134766 512.0859985351562,-91.36000061035156 C512.0819702148438,-91.35399627685547 512.0750122070312,-91.34700012207031 512.0689697265625,-91.34500122070312 C512.0189819335938,-91.29499816894531 511.96600341796875,-91.24800109863281 511.9110107421875,-91.2020034790039 C511.7980041503906,-91.10299682617188 511.6780090332031,-91.01399993896484 511.552001953125,-90.93399810791016 C510.96600341796875,-90.5459976196289 510.2650146484375,-90.31900024414062 509.5119934082031,-90.31900024414062 C509.5119934082031,-90.31900024414062 479.1419982910156,-90.31900024414062 479.1419982910156,-90.31900024414062 C477.0950012207031,-90.31900024414062 475.43701171875,-91.97699737548828 475.43701171875,-94.02300262451172 C475.43701171875,-94.02300262451172 475.43701171875,-109.7020034790039 475.43701171875,-109.7020034790039 C475.43701171875,-110.45500183105469 475.66400146484375,-111.15599822998047 476.052001953125,-111.74199676513672 C476.1319885253906,-111.86799621582031 476.22198486328125,-111.98799896240234 476.3210144042969,-112.10099792480469 C476.36700439453125,-112.15599822998047 476.4129943847656,-112.20800018310547 476.4630126953125,-112.25800323486328 C476.4649963378906,-112.26399993896484 476.47198486328125,-112.27100372314453 476.4779968261719,-112.2750015258789 C476.52801513671875,-112.32499694824219 476.5790100097656,-112.3759994506836 476.6310119628906,-112.42400360107422 C476.6860046386719,-112.47699737548828 476.74200439453125,-112.5250015258789 476.8009948730469,-112.572998046875 C476.85101318359375,-112.61499786376953 476.90399169921875,-112.65499877929688 476.9590148925781,-112.69300079345703 C476.97601318359375,-112.70800018310547 476.99200439453125,-112.72100067138672 477.010986328125,-112.73100280761719 C477.04901123046875,-112.76000213623047 477.09100341796875,-112.78700256347656 477.1310119628906,-112.80999755859375 C477.3389892578125,-112.9489974975586 477.5589904785156,-113.06300354003906 477.79400634765625,-113.15299987792969 C477.85699462890625,-113.1780014038086 477.9200134277344,-113.20099639892578 477.9849853515625,-113.22200012207031 C478.0539855957031,-113.24500274658203 478.1260070800781,-113.26599884033203 478.1969909667969,-113.28500366210938 C478.2909851074219,-113.30999755859375 478.38800048828125,-113.33100128173828 478.48699951171875,-113.3479995727539 C478.531005859375,-113.35600280761719 478.5769958496094,-113.36499786376953 478.62298583984375,-113.37100219726562 C478.6520080566406,-113.375 478.6820068359375,-113.37899780273438 478.7130126953125,-113.38099670410156 C478.7760009765625,-113.38899993896484 478.8389892578125,-113.39399719238281 478.9020080566406,-113.39800262451172 C478.98199462890625,-113.40399932861328 479.06201171875,-113.40599822998047 479.1419982910156,-113.40599822998047 C479.1419982910156,-113.40599822998047 509.5119934082031,-113.40599822998047 509.5119934082031,-113.40599822998047 C511.5580139160156,-113.40599822998047 513.2169799804688,-111.74800109863281 513.2169799804688,-109.7020034790039z"/></g><g opacity="1" transform="matrix(1,0,0,1,0,0)"><path fill="rgb(18,24,86)" fill-opacity="1" d=" M512.8720092773438,-109.7020034790039 C512.8720092773438,-106.08100128173828 512.8720092773438,-102.46099853515625 512.8720092773438,-98.83999633789062 C512.8720092773438,-97.27799987792969 512.9080200195312,-95.71099853515625 512.8720092773438,-94.14900207519531 C512.8250122070312,-92.08899688720703 511.3529968261719,-90.71499633789062 509.29901123046875,-90.66400146484375 C501.4159851074219,-90.46800231933594 493.50299072265625,-90.66400146484375 485.6180114746094,-90.66400146484375 C483.9739990234375,-90.66400146484375 482.33099365234375,-90.66400146484375 480.68701171875,-90.66400146484375 C479.39300537109375,-90.66400146484375 478.0790100097656,-90.53900146484375 476.99798583984375,-91.43399810791016 C475.5090026855469,-92.66600036621094 475.7820129394531,-94.62100219726562 475.7820129394531,-96.33499908447266 C475.7820129394531,-98.62899780273438 475.7820129394531,-100.92400360107422 475.7820129394531,-103.21800231933594 C475.7820129394531,-105.1500015258789 475.7820129394531,-107.08300018310547 475.7820129394531,-109.01499938964844 C475.7820129394531,-111.12899780273438 476.8349914550781,-112.97200012207031 479.1440124511719,-113.06199645996094 C481.7229919433594,-113.16200256347656 484.32501220703125,-113.06199645996094 486.9049987792969,-113.06199645996094 C491.7049865722656,-113.06199645996094 496.5039978027344,-113.06199645996094 501.3039855957031,-113.06199645996094 C504.0249938964844,-113.06199645996094 506.7690124511719,-113.16600036621094 509.4880065917969,-113.06199645996094 C511.38800048828125,-112.98899841308594 512.7869873046875,-111.60399627685547 512.8720092773438,-109.7020034790039 C512.8920288085938,-109.26000213623047 513.5819702148438,-109.25800323486328 513.56201171875,-109.7020034790039 C513.4550170898438,-112.07499694824219 511.66900634765625,-113.71700286865234 509.3210144042969,-113.7509994506836 C508.11700439453125,-113.76899719238281 506.9119873046875,-113.7509994506836 505.7080078125,-113.7509994506836 C500.802001953125,-113.7509994506836 495.8970031738281,-113.7509994506836 490.9909973144531,-113.7509994506836 C487.1990051269531,-113.7509994506836 483.406005859375,-113.76699829101562 479.614013671875,-113.7509994506836 C478.2650146484375,-113.74500274658203 476.99798583984375,-113.41100311279297 476.0769958496094,-112.34500122070312 C474.8970031738281,-110.97799682617188 475.0920104980469,-109.23600006103516 475.0920104980469,-107.56900024414062 C475.0920104980469,-103.1729965209961 475.0610046386719,-98.77400207519531 475.0920104980469,-94.37799835205078 C475.1090087890625,-91.98300170898438 476.6570129394531,-90.07099914550781 479.1419982910156,-89.9739990234375 C479.9599914550781,-89.94200134277344 480.7850036621094,-89.9739990234375 481.6029968261719,-89.9739990234375 C490.50201416015625,-89.9739990234375 499.4010009765625,-89.9739990234375 508.3009948730469,-89.9739990234375 C509.6919860839844,-89.9739990234375 511.01300048828125,-89.97200012207031 512.155029296875,-90.95899963378906 C513.4110107421875,-92.04399871826172 513.56201171875,-93.47699737548828 513.56201171875,-95.00800323486328 C513.56201171875,-99.51100158691406 513.56201171875,-104.01499938964844 513.56201171875,-108.51799774169922 C513.56201171875,-108.91300201416016 513.56201171875,-109.30699920654297 513.56201171875,-109.7020034790039 C513.56201171875,-110.14600372314453 512.8720092773438,-110.14700317382812 512.8720092773438,-109.7020034790039z"/></g><g opacity="1" transform="matrix(1,0,0,1,0,0)"><g opacity="1" transform="matrix(1,0,0,1,0,0)"><g opacity="1" transform="matrix(1,0,0,1,0,0)"><g opacity="1" transform="matrix(1,0,0,1,0,0)"><path fill="rgb(42,160,175)" fill-opacity="1" d=" M509.427001953125,-108.59400177001953 C509.427001953125,-108.59400177001953 492.781005859375,-108.59400177001953 492.781005859375,-108.59400177001953 C492.3349914550781,-108.59400177001953 491.9729919433594,-108.95600128173828 491.9729919433594,-109.4020004272461 C491.9729919433594,-109.4020004272461 491.9729919433594,-109.4749984741211 491.9729919433594,-109.4749984741211 C491.9729919433594,-109.9209976196289 492.3349914550781,-110.28299713134766 492.781005859375,-110.28299713134766 C492.781005859375,-110.28299713134766 509.427001953125,-110.28299713134766 509.427001953125,-110.28299713134766 C509.87298583984375,-110.28299713134766 510.2349853515625,-109.9209976196289 510.2349853515625,-109.4749984741211 C510.2349853515625,-109.4749984741211 510.2349853515625,-109.4020004272461 510.2349853515625,-109.4020004272461 C510.2349853515625,-108.95600128173828 509.87298583984375,-108.59400177001953 509.427001953125,-108.59400177001953z"/></g></g></g></g><g opacity="1" transform="matrix(1,0,0,1,0,0)"><path fill="rgb(42,160,175)" fill-opacity="1" d=" M494.21099853515625,-95.29399871826172 C494.21099853515625,-95.29399871826172 479.28399658203125,-95.29399871826172 479.28399658203125,-95.29399871826172 C479.0039978027344,-95.29399871826172 478.77801513671875,-95.5199966430664 478.77801513671875,-95.80000305175781 C478.77801513671875,-95.80000305175781 478.77801513671875,-96.21199798583984 478.77801513671875,-96.21199798583984 C478.77801513671875,-96.49199676513672 479.0039978027344,-96.71900177001953 479.28399658203125,-96.71900177001953 C479.28399658203125,-96.71900177001953 494.21099853515625,-96.71900177001953 494.21099853515625,-96.71900177001953 C494.4909973144531,-96.71900177001953 494.7179870605469,-96.49199676513672 494.7179870605469,-96.21199798583984 C494.7179870605469,-96.21199798583984 494.7179870605469,-95.80000305175781 494.7179870605469,-95.80000305175781 C494.7179870605469,-95.5199966430664 494.4909973144531,-95.29399871826172 494.21099853515625,-95.29399871826172z"/></g><g opacity="1" transform="matrix(1,0,0,1,0,0)"><g opacity="1" transform="matrix(1,0,0,1,0,0)"><g opacity="1" transform="matrix(1,0,0,1,0,0)"><g opacity="1" transform="matrix(1,0,0,1,0,0)"><path fill="rgb(42,160,175)" fill-opacity="1" d=" M498.17498779296875,-96.71900177001953 C498.17498779296875,-96.71900177001953 500.3909912109375,-96.71900177001953 500.3909912109375,-96.71900177001953 C500.78399658203125,-96.71900177001953 501.10400390625,-96.39900207519531 501.10400390625,-96.00599670410156 C501.10400390625,-96.00599670410156 501.10400390625,-96.00599670410156 501.10400390625,-96.00599670410156 C501.10400390625,-95.61299896240234 500.78399658203125,-95.29399871826172 500.3909912109375,-95.29399871826172 C500.3909912109375,-95.29399871826172 498.17498779296875,-95.29399871826172 498.17498779296875,-95.29399871826172 C497.7820129394531,-95.29399871826172 497.4620056152344,-95.61299896240234 497.4620056152344,-96.00599670410156 C497.4620056152344,-96.00599670410156 497.4620056152344,-96.00599670410156 497.4620056152344,-96.00599670410156 C497.4620056152344,-96.39900207519531 497.7820129394531,-96.71900177001953 498.17498779296875,-96.71900177001953z"/></g></g></g></g><g opacity="1" transform="matrix(1,0,0,1,0,0)"><g opacity="1" transform="matrix(1,0,0,1,0,0)"><g opacity="1" transform="matrix(1,0,0,1,0,0)"><g opacity="1" transform="matrix(1,0,0,1,0,0)"><path fill="rgb(42,160,175)" fill-opacity="1" d=" M502.16400146484375,-96.71900177001953 C502.16400146484375,-96.71900177001953 504.8479919433594,-96.71900177001953 504.8479919433594,-96.71900177001953 C504.9960021972656,-96.71900177001953 505.114990234375,-96.5989990234375 505.114990234375,-96.45099639892578 C505.114990234375,-96.45099639892578 505.114990234375,-95.56099700927734 505.114990234375,-95.56099700927734 C505.114990234375,-95.41300201416016 504.9960021972656,-95.29399871826172 504.8479919433594,-95.29399871826172 C504.8479919433594,-95.29399871826172 502.16400146484375,-95.29399871826172 502.16400146484375,-95.29399871826172 C502.0159912109375,-95.29399871826172 501.89599609375,-95.41300201416016 501.89599609375,-95.56099700927734 C501.89599609375,-95.56099700927734 501.89599609375,-96.45099639892578 501.89599609375,-96.45099639892578 C501.89599609375,-96.5989990234375 502.0159912109375,-96.71900177001953 502.16400146484375,-96.71900177001953z"/></g></g></g></g><g opacity="1" transform="matrix(1,0,0,1,0,0)"><g opacity="1" transform="matrix(1,0,0,1,0,0)"><g opacity="1" transform="matrix(1,0,0,1,0,0)"><g opacity="1" transform="matrix(1,0,0,1,0,0)"><path fill="rgb(42,160,175)" fill-opacity="1" d=" M509.60198974609375,-96.45099639892578 C509.60198974609375,-96.45099639892578 509.60198974609375,-95.56099700927734 509.60198974609375,-95.56099700927734 C509.60198974609375,-95.41300201416016 509.48199462890625,-95.29399871826172 509.3340148925781,-95.29399871826172 C509.3340148925781,-95.29399871826172 506.17498779296875,-95.29399871826172 506.17498779296875,-95.29399871826172 C506.0270080566406,-95.29399871826172 505.9070129394531,-95.41300201416016 505.9070129394531,-95.56099700927734 C505.9070129394531,-95.56099700927734 505.9070129394531,-96.45099639892578 505.9070129394531,-96.45099639892578 C505.9070129394531,-96.5989990234375 506.0270080566406,-96.71900177001953 506.17498779296875,-96.71900177001953 C506.17498779296875,-96.71900177001953 509.3340148925781,-96.71900177001953 509.3340148925781,-96.71900177001953 C509.48199462890625,-96.71900177001953 509.60198974609375,-96.5989990234375 509.60198974609375,-96.45099639892578z"/></g></g></g></g><g opacity="1" transform="matrix(1,0,0,1,0,0)"><path fill="rgb(42,160,175)" fill-opacity="1" d=" M508.2330017089844,-101.52200317382812 C508.2330017089844,-101.52200317382812 480.6210021972656,-101.52200317382812 480.6210021972656,-101.52200317382812 C479.6029968261719,-101.52200317382812 478.77801513671875,-102.34700012207031 478.77801513671875,-103.36499786376953 C478.77801513671875,-103.36499786376953 478.77801513671875,-103.53099822998047 478.77801513671875,-103.53099822998047 C478.77801513671875,-104.54900360107422 479.6029968261719,-105.375 480.6210021972656,-105.375 C480.6210021972656,-105.375 508.2330017089844,-105.375 508.2330017089844,-105.375 C509.2510070800781,-105.375 510.0769958496094,-104.54900360107422 510.0769958496094,-103.53099822998047 C510.0769958496094,-103.53099822998047 510.0769958496094,-103.36499786376953 510.0769958496094,-103.36499786376953 C510.0769958496094,-102.34700012207031 509.2510070800781,-101.52200317382812 508.2330017089844,-101.52200317382812z"/></g><g opacity="1" transform="matrix(1,0,0,1,0,0)"><g opacity="1" transform="matrix(1,0,0,1,0,0)"><g opacity="1" transform="matrix(1,0,0,1,0,0)"><path fill="rgb(255,255,255)" fill-opacity="1" d=" M500.5660095214844,-90.12999725341797 C500.4939880371094,-89.26200103759766 499.7239990234375,-88.89600372314453 499.2950134277344,-88.65899658203125 C498.8999938964844,-88.58599853515625 498.5039978027344,-88.5780029296875 498.1050109863281,-88.63700103759766 C497.656005859375,-88.72000122070312 497.2409973144531,-88.88400268554688 496.8590087890625,-89.1259994506836 C496.406005859375,-89.3489990234375 495.9830017089844,-89.62300109863281 495.5929870605469,-89.947998046875 C494.4230041503906,-90.89299774169922 493.4540100097656,-92.10299682617188 493.2409973144531,-93.6240005493164 C493.1600036621094,-94.19999694824219 493.2229919433594,-94.85800170898438 493.4739990234375,-95.38999938964844 C493.7590026855469,-95.99299621582031 494.31201171875,-96.05000305175781 494.90301513671875,-96.02100372314453 C495.2200012207031,-96.00499725341797 495.5409851074219,-95.9729995727539 495.8399963378906,-95.85900115966797 C496.03399658203125,-95.78500366210938 496.3349914550781,-95.68000030517578 496.47698974609375,-95.52300262451172"/></g><g opacity="1" transform="matrix(1,0,0,1,0,0)"><g opacity="1" transform="matrix(1,0,0,1,0,0)"><path fill="rgb(18,24,86)" fill-opacity="1" d=" M500.2449951171875,-90.12999725341797 C500.18798828125,-89.6449966430664 499.8330078125,-89.33899688720703 499.4360046386719,-89.1050033569336 C498.9309997558594,-88.80799865722656 498.25299072265625,-88.88899993896484 497.7139892578125,-89.06999969482422 C497.1319885253906,-89.26499938964844 496.5450134277344,-89.62699890136719 496.0539855957031,-89.99199676513672 C495.55999755859375,-90.35900115966797 495.0989990234375,-90.78600311279297 494.70098876953125,-91.25499725341797 C493.9419860839844,-92.14700317382812 493.38800048828125,-93.34600067138672 493.5589904785156,-94.54100036621094 C493.6409912109375,-95.11199951171875 493.84100341796875,-95.63200378417969 494.47100830078125,-95.6969985961914 C495.0190124511719,-95.75299835205078 495.8240051269531,-95.68599700927734 496.25,-95.29499816894531 C496.55499267578125,-95.01499938964844 497.010986328125,-95.46900177001953 496.7049865722656,-95.75 C496.2690124511719,-96.1510009765625 495.61199951171875,-96.29299926757812 495.03900146484375,-96.33499908447266 C494.5509948730469,-96.37000274658203 494.0150146484375,-96.35800170898438 493.6059875488281,-96.05400085449219 C492.6830139160156,-95.36699676513672 492.7929992675781,-93.76799774169922 493.0979919433594,-92.80400085449219 C493.4570007324219,-91.6729965209961 494.2130126953125,-90.71399688720703 495.1000061035156,-89.94400024414062 C496.0329895019531,-89.13300323486328 497.22900390625,-88.32599639892578 498.50299072265625,-88.27899932861328 C498.83099365234375,-88.26699829101562 499.2130126953125,-88.2699966430664 499.51300048828125,-88.41100311279297 C499.7170104980469,-88.50700378417969 499.9159851074219,-88.63700103759766 500.09600830078125,-88.77200317382812 C500.55499267578125,-89.11699676513672 500.82000732421875,-89.55999755859375 500.88800048828125,-90.12999725341797 C500.93701171875,-90.54000091552734 500.2929992675781,-90.53700256347656 500.2449951171875,-90.12999725341797 C500.2449951171875,-90.12999725341797 500.2449951171875,-90.12999725341797 500.2449951171875,-90.12999725341797z"/></g></g></g><g opacity="1" transform="matrix(1,0,0,1,0,0)"><g opacity="1" transform="matrix(1,0,0,1,0,0)"><path fill="rgb(255,255,255)" fill-opacity="1" d=" M504.1830139160156,-90.52999877929688 C503.9339904785156,-89.95899963378906 502.9259948730469,-89.3030014038086 502.32501220703125,-89.2249984741211 C502.1289978027344,-89.24500274658203 501.9330139160156,-89.26599884033203 501.73699951171875,-89.28600311279297 C501.2860107421875,-89.43099975585938 500.8699951171875,-89.64600372314453 500.4880065917969,-89.93199920654297 C500.22698974609375,-90.11299896240234 499.9670104980469,-90.29299926757812 499.70599365234375,-90.4739990234375 C498.4620056152344,-91.38300323486328 497.2869873046875,-92.60099792480469 496.7040100097656,-94.0479965209961 C496.4849853515625,-94.59200286865234 496.29998779296875,-95.1510009765625 496.3919982910156,-95.73999786376953 C496.4859924316406,-96.33999633789062 496.8429870605469,-96.65699768066406 497.43499755859375,-96.74800109863281 C497.9939880371094,-96.83399963378906 498.5050048828125,-96.79499816894531 499.01300048828125,-96.53900146484375 C499.35101318359375,-96.36900329589844 500.2829895019531,-96.10600280761719 500.5050048828125,-95.78800201416016"/></g><g opacity="1" transform="matrix(1,0,0,1,0,0)"><g opacity="1" transform="matrix(1,0,0,1,0,0)"><path fill="rgb(18,24,86)" fill-opacity="1" d=" M503.9049987792969,-90.69200134277344 C503.6719970703125,-90.21499633789062 503.14898681640625,-89.86100006103516 502.6719970703125,-89.65899658203125 C502.052001953125,-89.39700317382812 501.3869934082031,-89.71399688720703 500.86199951171875,-90.06099700927734 C499.7019958496094,-90.8270034790039 498.5740051269531,-91.68699645996094 497.7550048828125,-92.82599639892578 C497.35699462890625,-93.37999725341797 497.031005859375,-93.98799896240234 496.8280029296875,-94.64099884033203 C496.6669921875,-95.15899658203125 496.5270080566406,-95.98400115966797 497.0979919433594,-96.30799865722656 C497.6730041503906,-96.63500213623047 498.4159851074219,-96.44499969482422 498.9750061035156,-96.20500183105469 C499.385986328125,-96.02899932861328 499.9840087890625,-95.91899871826172 500.27801513671875,-95.56099700927734 C500.5409851074219,-95.24099731445312 500.9930114746094,-95.697998046875 500.73199462890625,-96.01599884033203 C500.4320068359375,-96.38099670410156 499.88800048828125,-96.53199768066406 499.4649963378906,-96.6969985961914 C498.875,-96.927001953125 498.36199951171875,-97.1500015258789 497.7099914550781,-97.10199737548828 C497.20001220703125,-97.06400299072266 496.6839904785156,-96.93099975585938 496.36199951171875,-96.50299835205078 C496.0260009765625,-96.05599975585938 496.00299072265625,-95.4530029296875 496.09600830078125,-94.9219970703125 C496.322998046875,-93.62799835205078 497.1400146484375,-92.42900085449219 498.03399658203125,-91.4990005493164 C498.4939880371094,-91.0199966430664 499.0039978027344,-90.58399963378906 499.5429992675781,-90.1969985961914 C500.0979919433594,-89.79900360107422 500.656005859375,-89.37200164794922 501.2900085449219,-89.11000061035156 C501.9460144042969,-88.83899688720703 502.55999755859375,-88.86699676513672 503.1809997558594,-89.19300079345703 C503.6809997558594,-89.45500183105469 504.2080078125,-89.8489990234375 504.46099853515625,-90.36699676513672 C504.6419982910156,-90.73699951171875 504.0870056152344,-91.06400299072266 503.9049987792969,-90.69200134277344 C503.9049987792969,-90.69200134277344 503.9049987792969,-90.69200134277344 503.9049987792969,-90.69200134277344z"/></g></g></g><g opacity="1" transform="matrix(1,0,0,1,0,0)"><g opacity="1" transform="matrix(1,0,0,1,0,0)"><path fill="rgb(255,255,255)" fill-opacity="1" d=" M507.87298583984375,-90.2239990234375 C507.2309875488281,-89.3290023803711 506.114013671875,-89.36599731445312 505.65301513671875,-89.46600341796875 C505.3949890136719,-89.47100067138672 503.5899963378906,-90.64600372314453 502.9360046386719,-91.1500015258789 C501.7170104980469,-92.08899688720703 500.56201171875,-93.28099822998047 500.2460021972656,-94.8479995727539 C500.1619873046875,-95.26499938964844 500.114013671875,-95.66999816894531 500.22698974609375,-96.08799743652344 C500.25,-96.27300262451172 500.3370056152344,-96.4260025024414 500.489013671875,-96.5459976196289 C501.95001220703125,-96.97899627685547 503.7699890136719,-95.62899780273438 504.0469970703125,-95.26499938964844"/></g><g opacity="1" transform="matrix(1,0,0,1,0,0)"><g opacity="1" transform="matrix(1,0,0,1,0,0)"><path fill="rgb(18,24,86)" fill-opacity="1" d=" M507.5950012207031,-90.38600158691406 C507.28900146484375,-89.98400115966797 506.8139953613281,-89.77400207519531 506.3169860839844,-89.74299621582031 C506.15899658203125,-89.73300170898438 506,-89.73699951171875 505.8429870605469,-89.75700378417969 C505.6759948730469,-89.77799987792969 505.70599365234375,-89.77100372314453 505.60101318359375,-89.81999969482422 C504.8599853515625,-90.16999816894531 504.1650085449219,-90.66699981689453 503.49798583984375,-91.13700103759766 C502.60198974609375,-91.76799774169922 501.73699951171875,-92.5250015258789 501.15301513671875,-93.46299743652344 C500.8269958496094,-93.98600006103516 500.6050109863281,-94.55799865722656 500.5140075683594,-95.16799926757812 C500.47100830078125,-95.4530029296875 500.4150085449219,-95.927001953125 500.59600830078125,-96.1760025024414 C500.7340087890625,-96.36599731445312 501.1239929199219,-96.31900024414062 501.3420104980469,-96.2969970703125 C502.1860046386719,-96.21299743652344 503.27301025390625,-95.71399688720703 503.8190002441406,-95.03800201416016 C504.0790100097656,-94.71600341796875 504.5320129394531,-95.17400360107422 504.27398681640625,-95.49299621582031 C504.0199890136719,-95.80699920654297 503.63800048828125,-96.0469970703125 503.2969970703125,-96.25199890136719 C502.7720031738281,-96.56700134277344 502.18798828125,-96.81700134277344 501.58099365234375,-96.91100311279297 C501.0150146484375,-96.99800109863281 500.2659912109375,-97.02400207519531 499.9909973144531,-96.41899871826172 C499.6839904785156,-95.74400329589844 499.8609924316406,-94.8489990234375 500.09698486328125,-94.17900085449219 C500.57598876953125,-92.81800079345703 501.6189880371094,-91.76100158691406 502.74200439453125,-90.89800262451172 C503.51800537109375,-90.302001953125 504.3689880371094,-89.70099639892578 505.25299072265625,-89.2760009765625 C506.2120056152344,-88.81500244140625 507.49700927734375,-89.2040023803711 508.1510009765625,-90.06099700927734 C508.4020080566406,-90.38999938964844 507.8429870605469,-90.71099853515625 507.5950012207031,-90.38600158691406 C507.5950012207031,-90.38600158691406 507.5950012207031,-90.38600158691406 507.5950012207031,-90.38600158691406z"/></g></g></g><g opacity="1" transform="matrix(1,0,0,1,0,0)"><g opacity="1" transform="matrix(1,0,0,1,0,0)"><path fill="rgb(255,255,255)" fill-opacity="1" d=" M510.1050109863281,-90.50499725341797 C510.031005859375,-90.05400085449219 509.8559875488281,-89.65299987792969 509.5790100097656,-89.302001953125 C509.281005859375,-89.16000366210938 508.96600341796875,-89.09600067138672 508.6340026855469,-89.11100006103516 C508.32000732421875,-89.11000061035156 508.0469970703125,-89.21299743652344 507.8139953613281,-89.41999816894531 C507.3160095214844,-89.86000061035156 506.84100341796875,-90.3239974975586 506.3900146484375,-90.81199645996094 C505.98699951171875,-91.23500061035156 505.6099853515625,-91.67900085449219 505.260009765625,-92.1449966430664 C504.9309997558594,-92.53399658203125 504.64898681640625,-92.95600128173828 504.41400146484375,-93.41000366210938 C504.13299560546875,-94.03900146484375 503.99700927734375,-94.85399627685547 504.2950134277344,-95.51000213623047 C505.0150146484375,-97.09300231933594 507.4419860839844,-95.27799987792969 508.02301025390625,-94.66899871826172 C508.5559997558594,-94.11100006103516 510.20098876953125,-91.09400177001953 510.1050109863281,-90.50499725341797z"/></g><g opacity="1" transform="matrix(1,0,0,1,0,0)"><g opacity="1" transform="matrix(1,0,0,1,0,0)"><path fill="rgb(18,24,86)" fill-opacity="1" d=" M509.7950134277344,-90.58999633789062 C509.7569885253906,-90.38200378417969 509.7070007324219,-90.17500305175781 509.6199951171875,-89.98200225830078 C509.5639953613281,-89.85700225830078 509.4729919433594,-89.6240005493164 509.3630065917969,-89.5459976196289 C509.2460021972656,-89.46299743652344 508.9960021972656,-89.44400024414062 508.8529968261719,-89.43399810791016 C508.6029968261719,-89.41699981689453 508.3529968261719,-89.43499755859375 508.1369934082031,-89.57499694824219 C507.8169860839844,-89.78299713134766 507.5409851074219,-90.0999984741211 507.2699890136719,-90.36599731445312 C506.93701171875,-90.69400024414062 506.6130065917969,-91.03399658203125 506.3009948730469,-91.38200378417969 C505.75,-91.99800109863281 505.20001220703125,-92.65599822998047 504.7959899902344,-93.37899780273438 C504.4620056152344,-93.97699737548828 504.239013671875,-94.94200134277344 504.6839904785156,-95.5459976196289 C505.2510070800781,-96.31500244140625 506.6050109863281,-95.38400268554688 507.1340026855469,-95.00199890136719 C507.81500244140625,-94.51100158691406 508.2019958496094,-93.91100311279297 508.614990234375,-93.18599700927734 C508.9110107421875,-92.66699981689453 509.1889953613281,-92.13600158691406 509.43499755859375,-91.59100341796875 C509.5350036621094,-91.37100219726562 509.6289978027344,-91.14700317382812 509.7040100097656,-90.91699981689453 C509.7569885253906,-90.75399780273438 509.79901123046875,-90.62899780273438 509.78399658203125,-90.50499725341797 C509.7340087890625,-90.09500122070312 510.37799072265625,-90.0989990234375 510.427001953125,-90.50499725341797 C510.47698974609375,-90.91600036621094 510.21600341796875,-91.4010009765625 510.0580139160156,-91.76300048828125 C509.802001953125,-92.35099792480469 509.5039978027344,-92.9209976196289 509.18798828125,-93.47899627685547 C508.9320068359375,-93.93099975585938 508.6679992675781,-94.3949966430664 508.3370056152344,-94.7969970703125 C508.0379943847656,-95.16100311279297 507.6260070800781,-95.4530029296875 507.23699951171875,-95.71199798583984 C506.3630065917969,-96.29299926757812 504.8240051269531,-96.99700164794922 504.0989990234375,-95.82499694824219 C503.6440124511719,-95.08999633789062 503.76800537109375,-94.09500122070312 504.09698486328125,-93.33799743652344 C504.47698974609375,-92.46399688720703 505.17999267578125,-91.677001953125 505.8070068359375,-90.97100067138672 C506.19500732421875,-90.53399658203125 506.60198974609375,-90.11100006103516 507.0249938964844,-89.70700073242188 C507.3940124511719,-89.3550033569336 507.7749938964844,-88.93000030517578 508.2969970703125,-88.82499694824219 C508.7330017089844,-88.73699951171875 509.406005859375,-88.76599884033203 509.77398681640625,-89.05000305175781 C510.1440124511719,-89.33499908447266 510.33599853515625,-89.98400115966797 510.4150085449219,-90.41899871826172 C510.489013671875,-90.8239974975586 509.8689880371094,-90.99700164794922 509.7950134277344,-90.58999633789062z"/></g></g></g></g></g><g transform="matrix(9.843756675720215,-0.35067063570022583,0.35067063570022583,9.843756675720215,-4239.01806640625,1828.0006103515625)" opacity="1" style="display: block;"><g opacity="1" transform="matrix(1,0,0,1,0,0)"><path fill="rgb(18,24,86)" fill-opacity="1" d=" M477.2229919433594,-92.08999633789062 C477.2229919433594,-92.08999633789062 460.0379943847656,-92.08999633789062 460.0379943847656,-92.08999633789062 C457.97198486328125,-92.08999633789062 456.2969970703125,-93.76499938964844 456.2969970703125,-95.83100128173828 C456.2969970703125,-95.83100128173828 456.2969970703125,-113.01599884033203 456.2969970703125,-113.01599884033203 C456.2969970703125,-115.08200073242188 457.97198486328125,-116.75800323486328 460.0379943847656,-116.75800323486328 C460.0379943847656,-116.75800323486328 477.2229919433594,-116.75800323486328 477.2229919433594,-116.75800323486328 C479.28900146484375,-116.75800323486328 480.9649963378906,-115.08200073242188 480.9649963378906,-113.01599884033203 C480.9649963378906,-113.01599884033203 480.9649963378906,-95.83100128173828 480.9649963378906,-95.83100128173828 C480.9649963378906,-93.76499938964844 479.28900146484375,-92.08999633789062 477.2229919433594,-92.08999633789062z"/></g><g opacity="1" transform="matrix(1,0,0,1,0,0)"><g opacity="1" transform="matrix(1,0,0,1,0,0)"><g opacity="1" transform="matrix(1,0,0,1,0,0)"><g opacity="1" transform="matrix(1,0,0,1,0,0)"><path fill="rgb(255,255,255)" fill-opacity="1" d=" M469.95098876953125,-98.27200317382812 C469.95098876953125,-98.27200317382812 459.8399963378906,-98.27200317382812 459.8399963378906,-98.27200317382812 C458.8219909667969,-98.27200317382812 458.2749938964844,-99.46800231933594 458.9419860839844,-100.23799896240234 C458.9419860839844,-100.23799896240234 463.635009765625,-105.65599822998047 463.635009765625,-105.65599822998047 C464.0870056152344,-106.177001953125 464.885986328125,-106.20600128173828 465.3739929199219,-105.71800231933594 C465.3739929199219,-105.71800231933594 470.7919921875,-100.30000305175781 470.7919921875,-100.30000305175781 C471.5409851074219,-99.5510025024414 471.010009765625,-98.27200317382812 469.95098876953125,-98.27200317382812z"/></g></g></g></g><g opacity="1" transform="matrix(1,0,0,1,0,0)"><g opacity="1" transform="matrix(1,0,0,1,0,0)"><g opacity="1" transform="matrix(1,0,0,1,0,0)"><g opacity="1" transform="matrix(1,0,0,1,0,0)"><path fill="rgb(255,255,255)" fill-opacity="1" d=" M477.4219970703125,-98.27200317382812 C477.4219970703125,-98.27200317382812 467.30999755859375,-98.27200317382812 467.30999755859375,-98.27200317382812 C466.2919921875,-98.27200317382812 465.7449951171875,-99.89099884033203 466.4119873046875,-100.93199920654297 C466.4119873046875,-100.93199920654297 471.1050109863281,-108.26300048828125 471.1050109863281,-108.26300048828125 C471.5570068359375,-108.96800231933594 472.3559875488281,-109.00700378417969 472.843994140625,-108.34700012207031 C472.843994140625,-108.34700012207031 478.2619934082031,-101.01599884033203 478.2619934082031,-101.01599884033203 C479.010986328125,-100.00299835205078 478.4809875488281,-98.27200317382812 477.4219970703125,-98.27200317382812z"/></g></g></g></g><g opacity="1" transform="matrix(1,0,0,1,0,0)"><path fill="rgb(255,255,255)" fill-opacity="1" d=" M469.510986328125,-108.81800079345703 C469.510986328125,-107.84700012207031 468.7250061035156,-107.05999755859375 467.7539978027344,-107.05999755859375 C466.7829895019531,-107.05999755859375 465.9960021972656,-107.84700012207031 465.9960021972656,-108.81800079345703 C465.9960021972656,-109.78900146484375 466.7829895019531,-110.57599639892578 467.7539978027344,-110.57599639892578 C468.7250061035156,-110.57599639892578 469.510986328125,-109.78900146484375 469.510986328125,-108.81800079345703z"/></g><g opacity="1" transform="matrix(1,0,0,1,0,0)"><path fill="rgb(255,255,255)" fill-opacity="1" d=" M467.9110107421875,-89.24199676513672 C467.9830017089844,-88.3740005493164 468.75299072265625,-88.00700378417969 469.1820068359375,-87.7699966430664 C469.5769958496094,-87.6969985961914 469.9729919433594,-87.68900299072266 470.37200927734375,-87.74800109863281 C470.8210144042969,-87.83100128173828 471.2359924316406,-87.99500274658203 471.6180114746094,-88.23699951171875 C472.0710144042969,-88.45999908447266 472.4930114746094,-88.73400115966797 472.88299560546875,-89.05899810791016 C474.0530090332031,-90.00399780273438 475.02301025390625,-91.21399688720703 475.2359924316406,-92.73500061035156 C475.3169860839844,-93.31099700927734 475.2539978027344,-93.96900177001953 475.00299072265625,-94.5009994506836 C474.7179870605469,-95.10399627685547 474.16400146484375,-95.16100311279297 473.5740051269531,-95.13200378417969 C473.2569885253906,-95.11599731445312 472.9360046386719,-95.08399963378906 472.6369934082031,-94.97000122070312 C472.4429931640625,-94.89600372314453 472.1409912109375,-94.79100036621094 471.9989929199219,-94.63400268554688"/></g><g opacity="1" transform="matrix(1,0,0,1,0,0)"><path fill="rgb(18,24,86)" fill-opacity="1" d=" M467.5889892578125,-89.24199676513672 C467.697998046875,-88.31800079345703 468.5140075683594,-87.50900268554688 469.44500732421875,-87.40899658203125 C470.74700927734375,-87.26899719238281 471.9679870605469,-87.9280014038086 472.9630126953125,-88.71299743652344 C473.9010009765625,-89.4530029296875 474.739013671875,-90.35299682617188 475.2099914550781,-91.46399688720703 C475.64300537109375,-92.48500061035156 475.8529968261719,-93.97799682617188 475.11700439453125,-94.9219970703125 C474.7669982910156,-95.37100219726562 474.2130126953125,-95.4729995727539 473.6719970703125,-95.45700073242188 C473.0260009765625,-95.43800354003906 472.2669982910156,-95.31600189208984 471.7720031738281,-94.86100006103516 C471.46600341796875,-94.58000183105469 471.9219970703125,-94.1259994506836 472.22698974609375,-94.40599822998047 C472.64801025390625,-94.79299926757812 473.4200134277344,-94.8499984741211 473.9599914550781,-94.81199645996094 C474.5880126953125,-94.76799774169922 474.8070068359375,-94.3030014038086 474.9070129394531,-93.7300033569336 C475.1199951171875,-92.51499938964844 474.5480041503906,-91.27300262451172 473.7760009765625,-90.36599731445312 C473.0060119628906,-89.45999908447266 471.95098876953125,-88.60299682617188 470.82000732421875,-88.20099639892578 C470.28900146484375,-88.01200103759766 469.5790100097656,-87.90399932861328 469.072998046875,-88.1969985961914 C468.66400146484375,-88.43399810791016 468.2909851074219,-88.74199676513672 468.23199462890625,-89.24199676513672 C468.1839904785156,-89.64800262451172 467.5400085449219,-89.65299987792969 467.5889892578125,-89.24199676513672 C467.5889892578125,-89.24199676513672 467.5889892578125,-89.24199676513672 467.5889892578125,-89.24199676513672z"/></g><g opacity="1" transform="matrix(1,0,0,1,0,0)"><path fill="rgb(255,255,255)" fill-opacity="1" d=" M464.29400634765625,-89.64099884033203 C464.5429992675781,-89.06999969482422 465.54998779296875,-88.41400146484375 466.1510009765625,-88.33599853515625 C466.34698486328125,-88.35600280761719 466.54400634765625,-88.37699890136719 466.739990234375,-88.39700317382812 C467.1910095214844,-88.54199981689453 467.60699462890625,-88.75800323486328 467.989013671875,-89.04399871826172 C468.25,-89.2249984741211 468.510009765625,-89.40399932861328 468.77099609375,-89.58499908447266 C470.0150146484375,-90.49400329589844 471.19000244140625,-91.71299743652344 471.77301025390625,-93.16000366210938 C471.99200439453125,-93.7040023803711 472.1759948730469,-94.26200103759766 472.0840148925781,-94.85099792480469 C471.989990234375,-95.45099639892578 471.6340026855469,-95.76799774169922 471.0419921875,-95.85900115966797 C470.4840087890625,-95.94499969482422 469.97198486328125,-95.90599822998047 469.4639892578125,-95.6500015258789 C469.1260070800781,-95.4800033569336 468.1940002441406,-95.21700286865234 467.97198486328125,-94.89900207519531"/></g><g opacity="1" transform="matrix(1,0,0,1,0,0)"><path fill="rgb(18,24,86)" fill-opacity="1" d=" M464.0159912109375,-89.47899627685547 C464.2409973144531,-89.01899719238281 464.67999267578125,-88.66799926757812 465.1099853515625,-88.40899658203125 C465.6409912109375,-88.08899688720703 466.12298583984375,-87.96499633789062 466.739990234375,-88.07499694824219 C467.3909912109375,-88.19200134277344 467.9570007324219,-88.63099670410156 468.48699951171875,-88.99800109863281 C469.0260009765625,-89.37100219726562 469.5480041503906,-89.75900268554688 470.02899169921875,-90.20500183105469 C471.0010070800781,-91.10600280761719 471.79400634765625,-92.19200134277344 472.22601318359375,-93.4530029296875 C472.5820007324219,-94.49199676513672 472.5090026855469,-95.87100219726562 471.2300109863281,-96.1500015258789 C470.489013671875,-96.31099700927734 469.8590087890625,-96.15799713134766 469.1789855957031,-95.87300109863281 C468.7080078125,-95.6760025024414 468.0820007324219,-95.54000091552734 467.7439880371094,-95.12699890136719 C467.4840087890625,-94.80899810791016 467.9360046386719,-94.35199737548828 468.1990051269531,-94.6719970703125 C468.4930114746094,-95.02999877929688 469.09100341796875,-95.13999938964844 469.50201416015625,-95.31600189208984 C470.0610046386719,-95.55599975585938 470.7560119628906,-95.72799682617188 471.34100341796875,-95.44100189208984 C471.9540100097656,-95.14099884033203 471.81201171875,-94.27799987792969 471.64801025390625,-93.75199890136719 C471.44500732421875,-93.0989990234375 471.1189880371094,-92.49099731445312 470.72100830078125,-91.93699645996094 C469.90899658203125,-90.80799865722656 468.80499267578125,-89.98400115966797 467.66900634765625,-89.20899963378906 C467.135009765625,-88.84500122070312 466.4440002441406,-88.4990005493164 465.80499267578125,-88.7699966430664 C465.3280029296875,-88.97200012207031 464.8039855957031,-89.32599639892578 464.5710144042969,-89.8030014038086 C464.3890075683594,-90.17500305175781 463.8349914550781,-89.8499984741211 464.0159912109375,-89.47899627685547 C464.0159912109375,-89.47899627685547 464.0159912109375,-89.47899627685547 464.0159912109375,-89.47899627685547z"/></g><g opacity="1" transform="matrix(1,0,0,1,0,0)"><path fill="rgb(255,255,255)" fill-opacity="1" d=" M460.60400390625,-89.33499908447266 C461.2460021972656,-88.44000244140625 462.364013671875,-88.47699737548828 462.8240051269531,-88.5770034790039 C463.0820007324219,-88.58200073242188 464.885986328125,-89.75800323486328 465.5400085449219,-90.26200103759766 C466.7590026855469,-91.20099639892578 467.9150085449219,-92.39299774169922 468.2309875488281,-93.95999908447266 C468.31500244140625,-94.37699890136719 468.3630065917969,-94.78099822998047 468.25,-95.1989974975586 C468.22698974609375,-95.38400268554688 468.1400146484375,-95.53700256347656 467.9880065917969,-95.65699768066406 C466.5270080566406,-96.08999633789062 464.7070007324219,-94.73999786376953 464.42999267578125,-94.3759994506836"/></g><g opacity="1" transform="matrix(1,0,0,1,0,0)"><path fill="rgb(18,24,86)" fill-opacity="1" d=" M460.32598876953125,-89.1729965209961 C460.927001953125,-88.38500213623047 462.0669860839844,-87.98999786376953 462.9849853515625,-88.28500366210938 C463.3869934082031,-88.41400146484375 463.7640075683594,-88.68299865722656 464.11700439453125,-88.90499877929688 C464.5840148925781,-89.197998046875 465.0459899902344,-89.50299835205078 465.49200439453125,-89.8270034790039 C466.57501220703125,-90.61399841308594 467.6239929199219,-91.58899688720703 468.19000244140625,-92.82499694824219 C468.4939880371094,-93.48799896240234 468.7139892578125,-94.27400207519531 468.6130065917969,-95.00800323486328 C468.5690002441406,-95.3290023803711 468.489990234375,-95.6780014038086 468.21600341796875,-95.88500213623047 C468.0010070800781,-96.0479965209961 467.6520080566406,-96.06199645996094 467.3890075683594,-96.06400299072266 C466.68701171875,-96.06800079345703 465.9939880371094,-95.81300354003906 465.385009765625,-95.48100280761719 C464.97198486328125,-95.25599670410156 464.50299072265625,-94.9749984741211 464.2030029296875,-94.60399627685547 C463.94500732421875,-94.28500366210938 464.39801025390625,-93.8270034790039 464.6579895019531,-94.14900207519531 C465.1319885253906,-94.73600006103516 466.00299072265625,-95.14800262451172 466.7130126953125,-95.33000183105469 C466.9670104980469,-95.3949966430664 467.22698974609375,-95.43199920654297 467.489990234375,-95.41799926757812 C467.87298583984375,-95.39700317382812 467.94000244140625,-95.26100158691406 467.98199462890625,-94.87999725341797 C468.052001953125,-94.24800109863281 467.8399963378906,-93.54900360107422 467.5580139160156,-92.98799896240234 C466.6719970703125,-91.22699737548828 464.77899169921875,-89.96399688720703 463.0880126953125,-89.04199981689453 C462.7869873046875,-88.87799835205078 462.68701171875,-88.8489990234375 462.3169860839844,-88.8489990234375 C461.7650146484375,-88.8489990234375 461.2250061035156,-89.0479965209961 460.8819885253906,-89.49700164794922 C460.6340026855469,-89.8219985961914 460.07501220703125,-89.50199890136719 460.32598876953125,-89.1729965209961 C460.32598876953125,-89.1729965209961 460.32598876953125,-89.1729965209961 460.32598876953125,-89.1729965209961z"/></g><g opacity="1" transform="matrix(1,0,0,1,0,0)"><path fill="rgb(255,255,255)" fill-opacity="1" d=" M458.37200927734375,-89.61599731445312 C458.4460144042969,-89.16500091552734 458.6210021972656,-88.76399993896484 458.89801025390625,-88.41300201416016 C459.1960144042969,-88.27100372314453 459.510986328125,-88.20700073242188 459.8429870605469,-88.22200012207031 C460.1570129394531,-88.22100067138672 460.42999267578125,-88.3239974975586 460.6629943847656,-88.53099822998047 C461.1610107421875,-88.97100067138672 461.635986328125,-89.43499755859375 462.0870056152344,-89.9229965209961 C462.489990234375,-90.34600067138672 462.8659973144531,-90.79000091552734 463.21600341796875,-91.25599670410156 C463.5450134277344,-91.6449966430664 463.8280029296875,-92.06700134277344 464.06298828125,-92.52100372314453 C464.343994140625,-93.1500015258789 464.47900390625,-93.96499633789062 464.1809997558594,-94.62100219726562 C463.46099853515625,-96.2040023803711 461.0350036621094,-94.38999938964844 460.4540100097656,-93.78099822998047 C459.9209899902344,-93.2229995727539 458.2760009765625,-90.20500183105469 458.37200927734375,-89.61599731445312z"/></g><g opacity="1" transform="matrix(1,0,0,1,0,0)"><path fill="rgb(18,24,86)" fill-opacity="1" d=" M458.0610046386719,-89.52999877929688 C458.14300537109375,-89.08100128173828 458.3160095214844,-88.65899658203125 458.5889892578125,-88.29199981689453 C458.84698486328125,-87.94599914550781 459.4389953613281,-87.88700103759766 459.8429870605469,-87.9000015258789 C460.2950134277344,-87.91400146484375 460.64300537109375,-88.08499908447266 460.9779968261719,-88.38099670410156 C461.37298583984375,-88.7300033569336 461.7510070800781,-89.0999984741211 462.114013671875,-89.48200225830078 C462.7959899902344,-90.1989974975586 463.4729919433594,-90.95999908447266 464.0119934082031,-91.79199981689453 C464.5069885253906,-92.55699920654297 464.8340148925781,-93.50299835205078 464.593994140625,-94.41699981689453 C464.4320068359375,-95.03299713134766 464.00201416015625,-95.50900268554688 463.3489990234375,-95.56800079345703 C462.7489929199219,-95.62300109863281 462.1390075683594,-95.35099792480469 461.6289978027344,-95.06199645996094 C461.1570129394531,-94.79499816894531 460.6990051269531,-94.46800231933594 460.3089904785156,-94.08999633789062 C459.9930114746094,-93.78399658203125 459.760986328125,-93.38700103759766 459.5360107421875,-93.01300048828125 C459.1619873046875,-92.39099884033203 458.8169860839844,-91.7490005493164 458.5150146484375,-91.08899688720703 C458.32598876953125,-90.6760025024414 457.99200439453125,-90.09300231933594 458.04998779296875,-89.61599731445312 C458.0989990234375,-89.20999908447266 458.7430114746094,-89.20500183105469 458.6929931640625,-89.61599731445312 C458.6629943847656,-89.86100006103516 458.85400390625,-90.27200317382812 458.9739990234375,-90.54900360107422 C459.18499755859375,-91.03700256347656 459.4280090332031,-91.51100158691406 459.6830139160156,-91.97699737548828 C460.072998046875,-92.69000244140625 460.4530029296875,-93.40299987792969 461.0870056152344,-93.91799926757812 C461.4739990234375,-94.23200225830078 461.9070129394531,-94.51499938964844 462.364013671875,-94.71700286865234 C462.7149963378906,-94.87200164794922 463.2139892578125,-95.05000305175781 463.5820007324219,-94.84700012207031 C464.15301513671875,-94.53099822998047 464.0679931640625,-93.60099792480469 463.92401123046875,-93.08300018310547 C463.697998046875,-92.26899719238281 463.0840148925781,-91.5739974975586 462.5559997558594,-90.93499755859375 C461.9490051269531,-90.20099639892578 461.2760009765625,-89.51200103759766 460.5669860839844,-88.875 C460.1860046386719,-88.53299713134766 459.7749938964844,-88.47899627685547 459.2869873046875,-88.60700225830078 C458.885009765625,-88.71199798583984 458.74798583984375,-89.33699798583984 458.6820068359375,-89.70099639892578 C458.6080017089844,-90.10800170898438 457.98699951171875,-89.93499755859375 458.0610046386719,-89.52999877929688z"/></g></g></g></svg>